{
  "asset": {
    "generator": "glTF-Transform v4.2.1",
    "version": "2.0"
  },
  "accessors": [
    {
      "type": "VEC3",
      "componentType": 5126,
      "count": 114,
      "max": [
        -0.002400000113993883,
        0.08720000088214874,
        0.10109999775886536
      ],
      "min": [
        -0.13040000200271606,
        -0.00419999985024333,
        -0.09809999912977219
      ],
      "bufferView": 0,
      "byteOffset": 0
    },
    {
      "type": "VEC3",
      "componentType": 5126,
      "count": 114,
      "bufferView": 0,
      "byteOffset": 12
    },
    {
      "type": "VEC3",
      "componentType": 5126,
      "count": 114,
      "max": [
        0.13089999556541443,
        0.0868000015616417,
        0.10080000013113022
      ],
      "min": [
        0.002199999988079071,
        -0.00419999985024333,
        -0.09839999675750732
      ],
      "bufferView": 1,
      "byteOffset": 0
    },
    {
      "type": "VEC3",
      "componentType": 5126,
      "count": 114,
      "bufferView": 1,
      "byteOffset": 12
    },
    {
      "type": "VEC3",
      "componentType": 5126,
      "count": 48,
      "max": [
        -0.09510000050067902,
        0.1673000007867813,
        0.04619999974966049
      ],
      "min": [
        -0.17679999768733978,
        0.08330000191926956,
        -0.046300001442432404
      ],
      "bufferView": 2,
      "byteOffset": 0
    },
    {
      "type": "VEC3",
      "componentType": 5126,
      "count": 48,
      "bufferView": 2,
      "byteOffset": 12
    },
    {
      "type": "VEC3",
      "componentType": 5126,
      "count": 54,
      "max": [
        -0.07590000331401825,
        0.23360000550746918,
        0.04619999974966049
      ],
      "min": [
        -0.17679999768733978,
        0.1501999944448471,
        -0.046300001442432404
      ],
      "bufferView": 3,
      "byteOffset": 0
    },
    {
      "type": "VEC3",
      "componentType": 5126,
      "count": 54,
      "bufferView": 3,
      "byteOffset": 12
    },
    {
      "type": "VEC3",
      "componentType": 5126,
      "count": 48,
      "max": [
        0.17759999632835388,
        0.16680000722408295,
        0.04619999974966049
      ],
      "min": [
        0.09470000118017197,
        0.0828000009059906,
        -0.04619999974966049
      ],
      "bufferView": 4,
      "byteOffset": 0
    },
    {
      "type": "VEC3",
      "componentType": 5126,
      "count": 48,
      "bufferView": 4,
      "byteOffset": 12
    },
    {
      "type": "VEC3",
      "componentType": 5126,
      "count": 54,
      "max": [
        0.17759999632835388,
        0.23350000381469727,
        0.04619999974966049
      ],
      "min": [
        0.07540000230073929,
        0.14949999749660492,
        -0.04619999974966049
      ],
      "bufferView": 5,
      "byteOffset": 0
    },
    {
      "type": "VEC3",
      "componentType": 5126,
      "count": 54,
      "bufferView": 5,
      "byteOffset": 12
    },
    {
      "type": "VEC3",
      "componentType": 5126,
      "count": 51,
      "max": [
        0.1467999964952469,
        0.3343999981880188,
        0.1168999969959259
      ],
      "min": [
        -0.1476999968290329,
        0.12780000269412994,
        -0.1712999939918518
      ],
      "bufferView": 6,
      "byteOffset": 0
    },
    {
      "type": "VEC3",
      "componentType": 5126,
      "count": 51,
      "bufferView": 6,
      "byteOffset": 12
    },
    {
      "type": "VEC3",
      "componentType": 5126,
      "count": 24,
      "max": [
        0.09700000286102295,
        0.26100000739097595,
        0.1784999966621399
      ],
      "min": [
        -0.09880000352859497,
        0.22930000722408295,
        0.05169999971985817
      ],
      "bufferView": 7,
      "byteOffset": 0
    },
    {
      "type": "VEC3",
      "componentType": 5126,
      "count": 24,
      "bufferView": 7,
      "byteOffset": 12
    },
    {
      "type": "VEC3",
      "componentType": 5126,
      "count": 12,
      "max": [
        0.10970000177621841,
        0.3208000063896179,
        0.1168999969959259
      ],
      "min": [
        -0.11050000041723251,
        0.22930000722408295,
        0.05169999971985817
      ],
      "bufferView": 8,
      "byteOffset": 0
    },
    {
      "type": "VEC3",
      "componentType": 5126,
      "count": 12,
      "bufferView": 8,
      "byteOffset": 12
    },
    {
      "type": "VEC2",
      "componentType": 5126,
      "count": 12,
      "bufferView": 8,
      "byteOffset": 24
    },
    {
      "type": "VEC3",
      "componentType": 5126,
      "count": 120,
      "max": [
        0.12690000236034393,
        0.27549999952316284,
        0.13230000436306
      ],
      "min": [
        -0.12690000236034393,
        0.028999999165534973,
        0.04259999841451645
      ],
      "bufferView": 9,
      "byteOffset": 0
    },
    {
      "type": "VEC3",
      "componentType": 5126,
      "count": 120,
      "bufferView": 9,
      "byteOffset": 12
    },
    {
      "type": "VEC2",
      "componentType": 5126,
      "count": 120,
      "bufferView": 9,
      "byteOffset": 24
    },
    {
      "type": "VEC3",
      "componentType": 5126,
      "count": 165,
      "max": [
        0.14229999482631683,
        0.27549999952316284,
        0.04800000041723251
      ],
      "min": [
        -0.14229999482631683,
        0.021700000390410423,
        -0.13050000369548798
      ],
      "bufferView": 10,
      "byteOffset": 0
    },
    {
      "type": "VEC3",
      "componentType": 5126,
      "count": 165,
      "bufferView": 10,
      "byteOffset": 12
    }
  ],
  "bufferViews": [
    {
      "buffer": 0,
      "byteOffset": 0,
      "byteLength": 2736,
      "byteStride": 24,
      "target": 34962
    },
    {
      "buffer": 0,
      "byteOffset": 2736,
      "byteLength": 2736,
      "byteStride": 24,
      "target": 34962
    },
    {
      "buffer": 0,
      "byteOffset": 5472,
      "byteLength": 1152,
      "byteStride": 24,
      "target": 34962
    },
    {
      "buffer": 0,
      "byteOffset": 6624,
      "byteLength": 1296,
      "byteStride": 24,
      "target": 34962
    },
    {
      "buffer": 0,
      "byteOffset": 7920,
      "byteLength": 1152,
      "byteStride": 24,
      "target": 34962
    },
    {
      "buffer": 0,
      "byteOffset": 9072,
      "byteLength": 1296,
      "byteStride": 24,
      "target": 34962
    },
    {
      "buffer": 0,
      "byteOffset": 10368,
      "byteLength": 1224,
      "byteStride": 24,
      "target": 34962
    },
    {
      "buffer": 0,
      "byteOffset": 11592,
      "byteLength": 576,
      "byteStride": 24,
      "target": 34962
    },
    {
      "buffer": 0,
      "byteOffset": 12168,
      "byteLength": 384,
      "byteStride": 32,
      "target": 34962
    },
    {
      "buffer": 0,
      "byteOffset": 12552,
      "byteLength": 3840,
      "byteStride": 32,
      "target": 34962
    },
    {
      "buffer": 0,
      "byteOffset": 16392,
      "byteLength": 3960,
      "byteStride": 24,
      "target": 34962
    }
  ],
  "samplers": [
    {
      "magFilter": 9729,
      "minFilter": 9987,
      "wrapS": 33071,
      "wrapT": 33071
    }
  ],
  "textures": [
    {
      "source": 0,
      "sampler": 0
    },
    {
      "source": 1,
      "sampler": 0
    },
    {
      "source": 2,
      "sampler": 0
    },
    {
      "source": 3,
      "sampler": 0
    },
    {
      "source": 4,
      "sampler": 0
    }
  ],
  "images": [
    {
      "mimeType": "image/png",
      "uri": "baseColor_1.png"
    },
    {
      "mimeType": "image/png",
      "uri": "baseColor_2.png"
    },
    {
      "mimeType": "image/png",
      "uri": "baseColor_3.png"
    },
    {
      "mimeType": "image/png",
      "uri": "baseColor_4.png"
    },
    {
      "mimeType": "image/png",
      "uri": "baseColor_5.png"
    }
  ],
  "buffers": [
    {
      "uri": "buffer.bin",
      "byteLength": 20352
    }
  ],
  "materials": [
    {
      "name": "Material__1154",
      "doubleSided": true,
      "pbrMetallicRoughness": {
        "baseColorFactor": [
          0.588,
          0.588,
          0.588,
          1
        ],
        "metallicFactor": 0,
        "baseColorTexture": {
          "index": 0
        }
      }
    },
    {
      "name": "Material__1153",
      "doubleSided": true,
      "pbrMetallicRoughness": {
        "baseColorFactor": [
          0.588,
          0.588,
          0.588,
          1
        ],
        "metallicFactor": 0,
        "baseColorTexture": {
          "index": 0
        }
      }
    },
    {
      "name": "Material__1149",
      "doubleSided": true,
      "pbrMetallicRoughness": {
        "baseColorFactor": [
          0.588,
          0.588,
          0.588,
          1
        ],
        "metallicFactor": 0,
        "baseColorTexture": {
          "index": 1
        }
      }
    },
    {
      "name": "Material__1148",
      "doubleSided": true,
      "pbrMetallicRoughness": {
        "baseColorFactor": [
          0.588,
          0.588,
          0.588,
          1
        ],
        "metallicFactor": 0,
        "baseColorTexture": {
          "index": 1
        }
      }
    },
    {
      "name": "Material__1151",
      "doubleSided": true,
      "pbrMetallicRoughness": {
        "baseColorFactor": [
          0.588,
          0.588,
          0.588,
          1
        ],
        "metallicFactor": 0,
        "baseColorTexture": {
          "index": 1
        }
      }
    },
    {
      "name": "Material__1150",
      "doubleSided": true,
      "pbrMetallicRoughness": {
        "baseColorFactor": [
          0.588,
          0.588,
          0.588,
          1
        ],
        "metallicFactor": 0,
        "baseColorTexture": {
          "index": 1
        }
      }
    },
    {
      "name": "Material__1146",
      "doubleSided": true,
      "pbrMetallicRoughness": {
        "baseColorFactor": [
          0.588,
          0.588,
          0.588,
          1
        ],
        "metallicFactor": 0,
        "baseColorTexture": {
          "index": 2
        }
      }
    },
    {
      "name": "Material__1147",
      "doubleSided": true,
      "pbrMetallicRoughness": {
        "baseColorFactor": [
          0.588,
          0.588,
          0.588,
          1
        ],
        "metallicFactor": 0,
        "baseColorTexture": {
          "index": 2
        }
      }
    },
    {
      "name": "Material__1145",
      "doubleSided": true,
      "pbrMetallicRoughness": {
        "baseColorFactor": [
          0.588,
          0.588,
          0.588,
          1
        ],
        "metallicFactor": 0,
        "baseColorTexture": {
          "index": 3
        }
      }
    },
    {
      "name": "Material__1144",
      "doubleSided": true,
      "pbrMetallicRoughness": {
        "baseColorFactor": [
          0.588,
          0.588,
          0.588,
          1
        ],
        "metallicFactor": 0,
        "baseColorTexture": {
          "index": 4
        }
      }
    },
    {
      "name": "Material__1152",
      "doubleSided": true,
      "pbrMetallicRoughness": {
        "baseColorFactor": [
          0.588,
          0.588,
          0.588,
          1
        ],
        "metallicFactor": 0,
        "baseColorTexture": {
          "index": 1
        }
      }
    }
  ],
  "meshes": [
    {
      "primitives": [
        {
          "attributes": {
            "POSITION": 0,
            "NORMAL": 1
          },
          "mode": 4,
          "material": 0
        }
      ]
    },
    {
      "primitives": [
        {
          "attributes": {
            "POSITION": 2,
            "NORMAL": 3
          },
          "mode": 4,
          "material": 1
        }
      ]
    },
    {
      "primitives": [
        {
          "attributes": {
            "POSITION": 4,
            "NORMAL": 5
          },
          "mode": 4,
          "material": 2
        }
      ]
    },
    {
      "primitives": [
        {
          "attributes": {
            "POSITION": 6,
            "NORMAL": 7
          },
          "mode": 4,
          "material": 3
        }
      ]
    },
    {
      "primitives": [
        {
          "attributes": {
            "POSITION": 8,
            "NORMAL": 9
          },
          "mode": 4,
          "material": 4
        }
      ]
    },
    {
      "primitives": [
        {
          "attributes": {
            "POSITION": 10,
            "NORMAL": 11
          },
          "mode": 4,
          "material": 5
        }
      ]
    },
    {
      "primitives": [
        {
          "attributes": {
            "POSITION": 12,
            "NORMAL": 13
          },
          "mode": 4,
          "material": 6
        }
      ]
    },
    {
      "primitives": [
        {
          "attributes": {
            "POSITION": 14,
            "NORMAL": 15
          },
          "mode": 4,
          "material": 7
        }
      ]
    },
    {
      "primitives": [
        {
          "attributes": {
            "POSITION": 16,
            "NORMAL": 17,
            "TEXCOORD_0": 18
          },
          "mode": 4,
          "material": 8
        }
      ]
    },
    {
      "primitives": [
        {
          "attributes": {
            "POSITION": 19,
            "NORMAL": 20,
            "TEXCOORD_0": 21
          },
          "mode": 4,
          "material": 9
        }
      ]
    },
    {
      "primitives": [
        {
          "attributes": {
            "POSITION": 22,
            "NORMAL": 23
          },
          "mode": 4,
          "material": 10
        }
      ]
    }
  ],
  "nodes": [
    {
      "name": "empty_2",
      "children": [
        1,
        2,
        3,
        4,
        5,
        6,
        7,
        8,
        9,
        10,
        11
      ]
    },
    {
      "name": "g legr_0_0_010",
      "mesh": 0
    },
    {
      "name": "g legl_0_0_009",
      "mesh": 1
    },
    {
      "name": "g armr_0_0_008",
      "mesh": 2
    },
    {
      "name": "g armr_0_0_007",
      "mesh": 3
    },
    {
      "name": "g arml_0_0_006",
      "mesh": 4
    },
    {
      "name": "g arml_0_0_005",
      "mesh": 5
    },
    {
      "name": "g body_0_0_004",
      "mesh": 6
    },
    {
      "name": "g body_0_0_003",
      "mesh": 7
    },
    {
      "name": "g body_2D46D3F3_0_004",
      "mesh": 8
    },
    {
      "name": "g body_34B9100B_0_003",
      "mesh": 9
    },
    {
      "name": "g body_0_0_002",
      "mesh": 10
    }
  ],
  "scenes": [
    {
      "name": "empty_1",
      "nodes": [
        0
      ]
    }
  ],
  "scene": 0
}